<svg width="24" height="24" viewBox="0 0 24 24" fill="none" xmlns="http://www.w3.org/2000/svg">
<path fill-rule="evenodd" clip-rule="evenodd" d="M5.63741 2.00049H6.04258H8.597H9.17572H14.5039H15.0474H17.9526H18.3578L18.5799 2.33936L21.7141 7.12143L21.9952 7.5503L21.6976 7.96786L12.6083 20.72L12.2649 21.2019L11.9965 21.9998L11.7262 21.1962L11.3869 20.72L2.29762 7.96786L2 7.5503L2.28109 7.12143L5.4153 2.33936L5.63741 2.00049ZM13.9107 16.3085L19.6323 8.28105H16.6105L13.9107 16.3085ZM16.614 6.78105H19.6975L17.5474 3.50049H15.5389L16.614 6.78105ZM13.9604 3.50049L15.0355 6.78105H8.8944L9.75445 3.50049H13.9604ZM8.20375 3.50049H6.44775L4.29764 6.78105H7.34371L8.20375 3.50049ZM7.3825 8.28105H4.36288L10.0804 16.3028L7.3825 8.28105ZM8.96506 8.28105L11.9965 17.2944L15.028 8.28105H8.96506Z" fill="#083458"/>
</svg>
