<svg fill="none" height="16" viewBox="0 0 16 16" width="16" xmlns="http://www.w3.org/2000/svg">
    <path
        d="M4.33301 3.75H11.9072C11.9148 3.75 11.9235 3.75112 11.9326 3.75391L11.9609 3.76758C11.9714 3.77452 11.9826 3.7844 11.9932 3.79688L12.0225 3.84277L13.2285 6.48438C13.2474 6.52573 13.2549 6.57607 13.2471 6.62598C13.2432 6.65073 13.2358 6.67316 13.2266 6.69238L13.1934 6.74121L8.0625 12.21L8.01953 12.2422C8.00666 12.2479 7.99425 12.25 7.9834 12.25L7.94727 12.2422L7.90332 12.21L2.80664 6.77734C2.79385 6.7637 2.78206 6.7462 2.77246 6.72559L2.75195 6.6543C2.74864 6.62762 2.74935 6.60089 2.75391 6.57617L2.77832 6.50781L4.22461 3.83008C4.23321 3.81415 4.24303 3.80063 4.25293 3.79004L4.2832 3.76562L4.33301 3.75Z"
        stroke="#8C8C8C" stroke-width="1.5" />
</svg>
