<svg fill="none" height="20" viewBox="0 0 20 20" width="20" xmlns="http://www.w3.org/2000/svg">
    <path
        d="M8.56818 4.70909C9.0375 4.59924 9.518 4.54432 10 4.54545C14.7727 4.54545 17.5 10 17.5 10C17.0861 10.7743 16.5925 11.5032 16.0273 12.175M11.4455 11.4455C11.2582 11.6464 11.0324 11.8076 10.7815 11.9194C10.5306 12.0312 10.2597 12.0913 9.98506 12.0962C9.71042 12.101 9.43761 12.0505 9.18292 11.9476C8.92822 11.8447 8.69686 11.6916 8.50262 11.4974C8.30839 11.3031 8.15527 11.0718 8.05239 10.8171C7.94952 10.5624 7.899 10.2896 7.90384 10.0149C7.90869 9.74029 7.9688 9.46944 8.0806 9.21853C8.19239 8.96763 8.35358 8.74181 8.55455 8.55455M2.5 2.5L17.5 17.5M14.05 14.05C12.8845 14.9384 11.4653 15.4306 10 15.4545C5.22727 15.4545 2.5 10 2.5 10C3.34811 8.41947 4.52441 7.0386 5.95 5.95L14.05 14.05Z"
        stroke="#083458" stroke-linecap="round" stroke-linejoin="round" stroke-width="1.5" />
</svg>
