<svg fill="none" height="32" viewBox="0 0 106 32" width="106" xmlns="http://www.w3.org/2000/svg">
    <g filter="url(#filter0_d_7689_8846)">
        <path
            d="M102 0H5.13504C4.2872 0 3.82405 0.988857 4.36682 1.64018L12.4665 11.3598C12.7756 11.7307 12.7756 12.2693 12.4665 12.6402L4.36682 22.3598C3.82404 23.0111 4.2872 24 5.13504 24H102V0Z"
            fill="#006FBB" />
        <path
            d="M41.58 15.076C41.98 15.076 42.296 15.036 42.528 14.956C42.768 14.876 42.94 14.76 43.044 14.608C43.156 14.448 43.212 14.264 43.212 14.056C43.212 13.896 43.168 13.704 43.08 13.48C43 13.256 42.888 13.008 42.744 12.736C42.6 12.456 42.432 12.164 42.24 11.86C42.056 11.548 41.856 11.232 41.64 10.912L42.468 10.372C42.78 10.844 43.052 11.292 43.284 11.716C43.516 12.132 43.712 12.524 43.872 12.892C44.032 13.252 44.16 13.592 44.256 13.912C44.368 14.264 44.492 14.524 44.628 14.692C44.772 14.86 44.92 14.968 45.072 15.016C45.224 15.056 45.364 15.076 45.492 15.076C45.66 15.076 45.784 15.124 45.864 15.22C45.944 15.308 45.984 15.416 45.984 15.544C45.984 15.672 45.928 15.792 45.816 15.904C45.704 16.008 45.56 16.06 45.384 16.06C45.12 16.06 44.86 16.012 44.604 15.916C44.356 15.812 44.14 15.648 43.956 15.424C43.772 15.192 43.644 14.884 43.572 14.5L44.052 14.116C44.052 14.436 43.984 14.748 43.848 15.052C43.712 15.348 43.464 15.592 43.104 15.784C42.752 15.976 42.244 16.072 41.58 16.072C41.292 16.072 41.012 16.048 40.74 16C40.476 15.952 40.232 15.884 40.008 15.796C39.784 15.7 39.588 15.588 39.42 15.46L39.9 14.632C40.06 14.736 40.284 14.836 40.572 14.932C40.86 15.028 41.196 15.076 41.58 15.076ZM45.3867 16.06L45.5067 15.076C45.9787 15.076 46.3467 15.06 46.6107 15.028C46.8747 14.988 47.0627 14.896 47.1747 14.752C47.2867 14.6 47.3427 14.364 47.3427 14.044C47.3427 13.844 47.3107 13.608 47.2467 13.336C47.1827 13.056 47.0987 12.76 46.9947 12.448C46.8907 12.136 46.7787 11.828 46.6587 11.524L47.6307 11.164C47.7347 11.42 47.8307 11.712 47.9187 12.04C48.0147 12.368 48.0947 12.692 48.1587 13.012C48.2227 13.332 48.2547 13.612 48.2547 13.852C48.2547 14.252 48.1987 14.592 48.0867 14.872C47.9827 15.152 47.8147 15.38 47.5827 15.556C47.3507 15.732 47.0507 15.86 46.6827 15.94C46.3227 16.02 45.8907 16.06 45.3867 16.06ZM47.6067 18.328C47.4387 18.328 47.2947 18.268 47.1747 18.148C47.0627 18.036 47.0067 17.9 47.0067 17.74C47.0067 17.58 47.0627 17.44 47.1747 17.32C47.2947 17.2 47.4387 17.14 47.6067 17.14C47.7667 17.14 47.9027 17.2 48.0147 17.32C48.1347 17.44 48.1947 17.58 48.1947 17.74C48.1947 17.9 48.1347 18.036 48.0147 18.148C47.9027 18.268 47.7667 18.328 47.6067 18.328ZM45.9627 18.328C45.7947 18.328 45.6507 18.268 45.5307 18.148C45.4187 18.036 45.3627 17.9 45.3627 17.74C45.3627 17.58 45.4187 17.44 45.5307 17.32C45.6507 17.2 45.7947 17.14 45.9627 17.14C46.1227 17.14 46.2587 17.2 46.3707 17.32C46.4907 17.44 46.5507 17.58 46.5507 17.74C46.5507 17.9 46.4907 18.036 46.3707 18.148C46.2587 18.268 46.1227 18.328 45.9627 18.328ZM51.5527 15.076C51.9527 15.076 52.2687 15.036 52.5007 14.956C52.7407 14.876 52.9127 14.76 53.0167 14.608C53.1287 14.448 53.1847 14.264 53.1847 14.056C53.1847 13.896 53.1407 13.704 53.0527 13.48C52.9727 13.256 52.8607 13.008 52.7167 12.736C52.5727 12.456 52.4047 12.164 52.2127 11.86C52.0287 11.548 51.8287 11.232 51.6127 10.912L52.4407 10.372C52.7527 10.844 53.0247 11.292 53.2567 11.716C53.4887 12.132 53.6847 12.524 53.8447 12.892C54.0047 13.252 54.1327 13.592 54.2287 13.912C54.3407 14.264 54.4647 14.524 54.6007 14.692C54.7447 14.86 54.8927 14.968 55.0447 15.016C55.1967 15.056 55.3367 15.076 55.4647 15.076C55.6327 15.076 55.7567 15.124 55.8367 15.22C55.9167 15.308 55.9567 15.416 55.9567 15.544C55.9567 15.672 55.9007 15.792 55.7887 15.904C55.6767 16.008 55.5327 16.06 55.3567 16.06C55.0927 16.06 54.8327 16.012 54.5767 15.916C54.3287 15.812 54.1127 15.648 53.9287 15.424C53.7447 15.192 53.6167 14.884 53.5447 14.5L54.0247 14.116C54.0247 14.436 53.9567 14.748 53.8207 15.052C53.6847 15.348 53.4367 15.592 53.0767 15.784C52.7247 15.976 52.2167 16.072 51.5527 16.072C51.2647 16.072 50.9847 16.048 50.7127 16C50.4487 15.952 50.2047 15.884 49.9807 15.796C49.7567 15.7 49.5607 15.588 49.3927 15.46L49.8727 14.632C50.0327 14.736 50.2567 14.836 50.5447 14.932C50.8327 15.028 51.1687 15.076 51.5527 15.076ZM55.3594 16.06L55.4674 15.076C55.8834 15.076 56.2914 15.044 56.6914 14.98C57.0914 14.916 57.4834 14.824 57.8674 14.704C58.2514 14.584 58.6194 14.44 58.9714 14.272C59.3314 14.096 59.6714 13.896 59.9914 13.672C59.7834 13.488 59.5434 13.328 59.2714 13.192C58.9994 13.056 58.6994 12.952 58.3714 12.88C58.0514 12.8 57.7114 12.76 57.3514 12.76C57.2234 12.76 57.1034 12.764 56.9914 12.772C56.8794 12.78 56.7674 12.796 56.6554 12.82C56.5434 12.836 56.4154 12.86 56.2714 12.892L56.0794 11.98C56.2954 11.916 56.5114 11.868 56.7274 11.836C56.9434 11.796 57.1514 11.776 57.3514 11.776C57.7674 11.776 58.1434 11.828 58.4794 11.932C58.8154 12.028 59.1194 12.148 59.3914 12.292C59.6714 12.436 59.9314 12.58 60.1714 12.724C60.4194 12.868 60.6594 12.992 60.8914 13.096C61.1234 13.192 61.3634 13.24 61.6114 13.24H61.8634L61.9474 14.104C61.6034 14.104 61.2874 14.152 60.9994 14.248C60.7114 14.344 60.4274 14.468 60.1474 14.62C59.8754 14.764 59.5874 14.92 59.2834 15.088C58.9794 15.248 58.6434 15.404 58.2754 15.556C57.9074 15.7 57.4834 15.82 57.0034 15.916C56.5314 16.012 55.9834 16.06 55.3594 16.06ZM58.7074 18.232C58.5394 18.232 58.3954 18.172 58.2754 18.052C58.1634 17.94 58.1074 17.804 58.1074 17.644C58.1074 17.484 58.1634 17.344 58.2754 17.224C58.3954 17.104 58.5394 17.044 58.7074 17.044C58.8674 17.044 59.0034 17.104 59.1154 17.224C59.2354 17.344 59.2954 17.484 59.2954 17.644C59.2954 17.804 59.2354 17.94 59.1154 18.052C59.0034 18.172 58.8674 18.232 58.7074 18.232ZM65.9616 16.012C65.9616 15.82 65.9776 15.616 66.0096 15.4C66.0496 15.176 66.1056 14.94 66.1776 14.692C66.2576 14.436 66.3536 14.168 66.4656 13.888L67.3296 14.224C67.2496 14.448 67.1776 14.66 67.1136 14.86C67.0576 15.06 67.0136 15.248 66.9816 15.424C66.9576 15.6 66.9456 15.768 66.9456 15.928C66.9456 16.312 67.0456 16.644 67.2456 16.924C67.4536 17.204 67.7376 17.42 68.0976 17.572C68.4576 17.724 68.8776 17.8 69.3576 17.8C69.9416 17.8 70.4216 17.716 70.7976 17.548C71.1816 17.38 71.4776 17.124 71.6856 16.78C71.9016 16.436 72.0456 16 72.1176 15.472C72.1896 14.936 72.2136 14.308 72.1896 13.588L71.9616 7.432H72.9576L73.1616 13.84C73.1776 14.376 73.1536 14.892 73.0896 15.388C73.0336 15.876 72.9216 16.324 72.7536 16.732C72.5856 17.148 72.3536 17.508 72.0576 17.812C71.7616 18.124 71.3896 18.364 70.9416 18.532C70.4936 18.7 69.9536 18.784 69.3216 18.784C68.8976 18.784 68.4856 18.728 68.0856 18.616C67.6856 18.504 67.3256 18.336 67.0056 18.112C66.6856 17.888 66.4296 17.6 66.2376 17.248C66.0536 16.904 65.9616 16.492 65.9616 16.012ZM74.6413 18.76L74.4253 17.776C74.9053 17.712 75.3453 17.62 75.7453 17.5C76.1533 17.388 76.5013 17.224 76.7893 17.008C77.0853 16.792 77.3133 16.508 77.4733 16.156C77.6333 15.804 77.7133 15.364 77.7133 14.836C77.7133 14.292 77.6133 13.84 77.4133 13.48C77.2133 13.12 76.9533 12.94 76.6333 12.94C76.4653 12.94 76.3093 13.004 76.1653 13.132C76.0213 13.26 75.9013 13.432 75.8053 13.648C75.7173 13.864 75.6733 14.1 75.6733 14.356C75.6733 14.5 75.7053 14.62 75.7693 14.716C75.8333 14.804 75.9253 14.876 76.0453 14.932C76.1733 14.98 76.3333 15.016 76.5253 15.04C76.7173 15.064 76.9413 15.076 77.1973 15.076H79.7293C79.8973 15.076 80.0173 15.124 80.0893 15.22C80.1693 15.308 80.2093 15.416 80.2093 15.544C80.2093 15.672 80.1533 15.792 80.0413 15.904C79.9293 16.008 79.7853 16.06 79.6093 16.06H76.7413C76.3813 16.06 76.0453 16.008 75.7333 15.904C75.4293 15.8 75.1813 15.64 74.9893 15.424C74.8053 15.2 74.7133 14.908 74.7133 14.548C74.7133 14.212 74.7653 13.892 74.8693 13.588C74.9733 13.276 75.1133 13 75.2893 12.76C75.4733 12.512 75.6853 12.316 75.9253 12.172C76.1733 12.028 76.4413 11.956 76.7293 11.956C77.0973 11.956 77.4253 12.064 77.7133 12.28C78.0013 12.496 78.2293 12.824 78.3973 13.264C78.5653 13.696 78.6493 14.244 78.6493 14.908C78.6493 15.652 78.4973 16.292 78.1933 16.828C77.8973 17.372 77.4493 17.804 76.8493 18.124C76.2573 18.444 75.5213 18.656 74.6413 18.76ZM85.4135 16.216C84.7095 16.216 84.1175 16.188 83.6375 16.132C83.1655 16.084 82.7815 16.008 82.4855 15.904C82.1895 15.8 81.9655 15.668 81.8135 15.508C81.6615 15.348 81.5575 15.156 81.5015 14.932L81.7775 14.836C81.5775 15.22 81.3615 15.5 81.1295 15.676C80.8975 15.844 80.6535 15.952 80.3975 16C80.1495 16.04 79.8855 16.06 79.6055 16.06L79.7255 15.076C80.0055 15.076 80.2335 15.036 80.4095 14.956C80.5935 14.876 80.7415 14.744 80.8535 14.56C80.9735 14.376 81.0775 14.132 81.1655 13.828C81.2535 13.524 81.3495 13.148 81.4535 12.7L82.3295 12.928C82.2815 13.112 82.2375 13.288 82.1975 13.456C82.1575 13.624 82.1255 13.772 82.1015 13.9C82.0855 14.02 82.0775 14.116 82.0775 14.188C82.0775 14.38 82.1215 14.544 82.2095 14.68C82.2975 14.808 82.4655 14.916 82.7135 15.004C82.9615 15.084 83.3175 15.144 83.7815 15.184C84.2535 15.216 84.8695 15.232 85.6295 15.232C86.1575 15.232 86.6295 15.2 87.0455 15.136C87.4615 15.072 87.8095 14.976 88.0895 14.848C88.3775 14.712 88.5975 14.548 88.7495 14.356C88.9015 14.164 88.9775 13.944 88.9775 13.696C88.9775 13.52 88.9335 13.348 88.8455 13.18C88.7575 13.004 88.6215 12.856 88.4375 12.736C88.2535 12.616 88.0095 12.556 87.7055 12.556C87.3215 12.556 86.9375 12.656 86.5535 12.856C86.1775 13.056 85.8175 13.308 85.4735 13.612C85.1375 13.908 84.8375 14.212 84.5735 14.524C84.3095 14.836 84.0975 15.108 83.9375 15.34L82.8935 15.304C83.1495 14.888 83.4535 14.464 83.8055 14.032C84.1655 13.592 84.5575 13.188 84.9815 12.82C85.4135 12.444 85.8655 12.144 86.3375 11.92C86.8095 11.688 87.2895 11.572 87.7775 11.572C88.2175 11.572 88.5935 11.664 88.9055 11.848C89.2255 12.024 89.4695 12.264 89.6375 12.568C89.8135 12.872 89.9015 13.216 89.9015 13.6C89.9015 14.072 89.7615 14.508 89.4815 14.908C89.2095 15.3 88.7455 15.616 88.0895 15.856C87.4335 16.096 86.5415 16.216 85.4135 16.216ZM91.1413 18.76L90.9253 17.776C91.4053 17.712 91.8453 17.62 92.2453 17.5C92.6533 17.388 93.0013 17.224 93.2893 17.008C93.5853 16.792 93.8133 16.508 93.9733 16.156C94.1333 15.804 94.2133 15.364 94.2133 14.836C94.2133 14.588 94.1893 14.352 94.1413 14.128C94.0933 13.896 94.0213 13.692 93.9253 13.516C93.8293 13.34 93.7133 13.2 93.5773 13.096C93.4493 12.992 93.3013 12.94 93.1333 12.94C92.9493 12.94 92.7813 13.012 92.6293 13.156C92.4853 13.292 92.3693 13.468 92.2813 13.684C92.2013 13.9 92.1613 14.116 92.1613 14.332C92.1613 14.5 92.1933 14.648 92.2573 14.776C92.3293 14.896 92.4453 14.988 92.6053 15.052C92.7653 15.116 92.9733 15.148 93.2293 15.148C93.4613 15.148 93.6933 15.124 93.9253 15.076C94.1653 15.028 94.3693 14.964 94.5373 14.884L94.5853 15.724C94.3933 15.86 94.1653 15.956 93.9013 16.012C93.6453 16.068 93.3853 16.096 93.1213 16.096C92.8173 16.096 92.5453 16.064 92.3053 16C92.0733 15.936 91.8733 15.844 91.7053 15.724C91.5453 15.596 91.4213 15.436 91.3333 15.244C91.2533 15.052 91.2133 14.828 91.2133 14.572C91.2133 14.268 91.2613 13.964 91.3573 13.66C91.4533 13.348 91.5893 13.064 91.7653 12.808C91.9413 12.552 92.1533 12.348 92.4013 12.196C92.6493 12.036 92.9253 11.956 93.2293 11.956C93.5493 11.956 93.8293 12.04 94.0693 12.208C94.3093 12.368 94.5093 12.588 94.6693 12.868C94.8293 13.148 94.9493 13.464 95.0293 13.816C95.1093 14.168 95.1493 14.532 95.1493 14.908C95.1493 15.652 94.9973 16.292 94.6933 16.828C94.3973 17.372 93.9493 17.804 93.3493 18.124C92.7573 18.444 92.0213 18.656 91.1413 18.76Z"
            fill="white" />
        <path
            d="M28.6863 12.5342L29.5953 17.65C29.6055 17.7102 29.597 17.7721 29.5711 17.8274C29.5451 17.8827 29.5029 17.9288 29.4501 17.9595C29.3972 17.9901 29.3363 18.0039 29.2754 17.999C29.2145 17.9941 29.1565 17.9707 29.1093 17.932L26.9612 16.3197C26.8575 16.2423 26.7315 16.2004 26.6021 16.2004C26.4726 16.2004 26.3467 16.2423 26.243 16.3197L24.0913 17.9314C24.0441 17.9701 23.9862 17.9934 23.9254 17.9983C23.8646 18.0032 23.8037 17.9895 23.7509 17.9589C23.6981 17.9283 23.6558 17.8824 23.6298 17.8272C23.6038 17.772 23.5952 17.7102 23.6053 17.65L24.5137 12.5342"
            stroke="white" stroke-linecap="round" stroke-linejoin="round" stroke-width="1.25" />
        <path
            d="M26.6001 13.2003C28.5884 13.2003 30.2003 11.5884 30.2003 9.60014C30.2003 7.61184 28.5884 6 26.6001 6C24.6118 6 23 7.61184 23 9.60014C23 11.5884 24.6118 13.2003 26.6001 13.2003Z"
            stroke="white" stroke-linecap="round" stroke-linejoin="round" stroke-width="1.25" />
    </g>
    <defs>
        <filter color-interpolation-filters="sRGB" filterUnits="userSpaceOnUse" height="32"
            id="filter0_d_7689_8846" width="105.867" x="0.133118" y="0">
            <feFlood flood-opacity="0" result="BackgroundImageFix" />
            <feColorMatrix in="SourceAlpha" result="hardAlpha" type="matrix"
                values="0 0 0 0 0 0 0 0 0 0 0 0 0 0 0 0 0 0 127 0" />
            <feOffset dy="4" />
            <feGaussianBlur stdDeviation="2" />
            <feComposite in2="hardAlpha" operator="out" />
            <feColorMatrix type="matrix" values="0 0 0 0 0 0 0 0 0 0 0 0 0 0 0 0 0 0 0.15 0" />
            <feBlend in2="BackgroundImageFix" mode="normal" result="effect1_dropShadow_7689_8846" />
            <feBlend in="SourceGraphic" in2="effect1_dropShadow_7689_8846" mode="normal"
                result="shape" />
        </filter>
    </defs>
</svg>
